<mxfile host="app.diagrams.net" modified="2021-07-14T11:41:49.215Z" agent="5.0 (Windows NT 10.0; Win64; x64) AppleWebKit/537.36 (KHTML, like Gecko) Chrome/91.0.4472.124 Safari/537.36" etag="-xbVe7_MMxmS2v4xXGMC" version="14.8.6" type="github">
  <diagram id="CTS4dLAb7qhHIlt91DKg" name="Page-1">
    <mxGraphModel dx="1381" dy="704" grid="1" gridSize="10" guides="1" tooltips="1" connect="1" arrows="1" fold="1" page="1" pageScale="1" pageWidth="827" pageHeight="1169" math="0" shadow="0">
      <root>
        <mxCell id="0" />
        <mxCell id="1" parent="0" />
        <mxCell id="zAkL93ypsn87w1chbUHy-5" style="edgeStyle=orthogonalEdgeStyle;rounded=0;orthogonalLoop=1;jettySize=auto;html=1;exitX=0.4;exitY=0.1;exitDx=0;exitDy=0;exitPerimeter=0;entryX=1;entryY=0.5;entryDx=0;entryDy=0;" edge="1" parent="1" source="zAkL93ypsn87w1chbUHy-1" target="zAkL93ypsn87w1chbUHy-2">
          <mxGeometry relative="1" as="geometry" />
        </mxCell>
        <mxCell id="zAkL93ypsn87w1chbUHy-6" style="edgeStyle=orthogonalEdgeStyle;rounded=0;orthogonalLoop=1;jettySize=auto;html=1;exitX=0.55;exitY=0.95;exitDx=0;exitDy=0;exitPerimeter=0;entryX=1;entryY=0.5;entryDx=0;entryDy=0;" edge="1" parent="1" source="zAkL93ypsn87w1chbUHy-1" target="zAkL93ypsn87w1chbUHy-4">
          <mxGeometry relative="1" as="geometry" />
        </mxCell>
        <mxCell id="zAkL93ypsn87w1chbUHy-10" style="edgeStyle=orthogonalEdgeStyle;rounded=0;orthogonalLoop=1;jettySize=auto;html=1;exitX=0.875;exitY=0.5;exitDx=0;exitDy=0;exitPerimeter=0;entryX=0;entryY=0.5;entryDx=0;entryDy=0;" edge="1" parent="1" source="zAkL93ypsn87w1chbUHy-1" target="zAkL93ypsn87w1chbUHy-7">
          <mxGeometry relative="1" as="geometry" />
        </mxCell>
        <mxCell id="zAkL93ypsn87w1chbUHy-1" value="用户基础信息" style="ellipse;shape=cloud;whiteSpace=wrap;html=1;" vertex="1" parent="1">
          <mxGeometry x="500" y="260" width="120" height="80" as="geometry" />
        </mxCell>
        <mxCell id="zAkL93ypsn87w1chbUHy-2" value="订单详情" style="rounded=0;whiteSpace=wrap;html=1;" vertex="1" parent="1">
          <mxGeometry x="160" y="170" width="120" height="60" as="geometry" />
        </mxCell>
        <mxCell id="zAkL93ypsn87w1chbUHy-3" value="其他页面" style="rounded=0;whiteSpace=wrap;html=1;" vertex="1" parent="1">
          <mxGeometry x="160" y="340" width="120" height="60" as="geometry" />
        </mxCell>
        <mxCell id="zAkL93ypsn87w1chbUHy-4" value="其他页面" style="rounded=0;whiteSpace=wrap;html=1;" vertex="1" parent="1">
          <mxGeometry x="160" y="340" width="120" height="60" as="geometry" />
        </mxCell>
        <mxCell id="zAkL93ypsn87w1chbUHy-7" value="客户分析" style="rounded=0;whiteSpace=wrap;html=1;" vertex="1" parent="1">
          <mxGeometry x="720" y="270" width="140" height="60" as="geometry" />
        </mxCell>
        <mxCell id="zAkL93ypsn87w1chbUHy-12" value="&lt;span&gt;历史备注信息&lt;/span&gt;" style="whiteSpace=wrap;html=1;rounded=0;" vertex="1" parent="1">
          <mxGeometry x="730" y="210" width="120" height="60" as="geometry" />
        </mxCell>
        <mxCell id="zAkL93ypsn87w1chbUHy-14" value="1、修改时，对【客户分析以外】的字段进行调整，不能覆盖历史数据" style="rounded=0;whiteSpace=wrap;html=1;" vertex="1" parent="1">
          <mxGeometry x="980" y="180" width="430" height="60" as="geometry" />
        </mxCell>
        <mxCell id="zAkL93ypsn87w1chbUHy-15" value="2、修改时，仅【客户分析】的字段进行调整，覆盖历史数据" style="rounded=0;whiteSpace=wrap;html=1;" vertex="1" parent="1">
          <mxGeometry x="980" y="300" width="430" height="60" as="geometry" />
        </mxCell>
      </root>
    </mxGraphModel>
  </diagram>
</mxfile>
